{"title":"THE LEGEND OF KORRA S01 720p Web-Dl 95MB MrLss","uid":7580786,"size":1174085275,"categoryP":"video","categoryS":"hd___tv_shows","magnet":"?xt=urn:btih:1d9923e08c0831b6c2d77230f58c5f3160eadcaf&amp;dn=THE+LEGEND+OF+KORRA+S01+720p+Web-Dl+95MB+MrLss&amp;tr=udp%3A%2F%2Ftracker.openbittorrent.com%3A80&amp;tr=udp%3A%2F%2Fopen.demonii.com%3A1337&amp;tr=udp%3A%2F%2Ftracker.coppersurfer.tk%3A6969&amp;tr=udp%3A%2F%2Fexodus.desync.com%3A6969","seeders":2,"leechers":1,"uploader":"mf-den","files":14,"time":1346231874,"description":"The Complete Season 1 in 720p Web-dl of The Legend Of Korra.\n\nFile Details of Episode 1\n\nFormat                           : Matroska\nFile size                        : 90.5 MiB\nDuration                         : 23mn 23s\nOverall bit rate                 : 541 Kbps\n\nVideo\nID                               : 1\nFormat                           : AVC\nFormat/Info                      : Advanced Video Codec\nFormat profile                   : &lt;a class=&quot;__cf_email__&quot; href=&quot;/cdn-cgi/l/email-protection&quot; data-cfemail=&quot;044c6d636c4448302a34&quot;&gt;[email&amp;#160;protected]&lt;/a&gt;&lt;script data-cfhash='f9e31' type=&quot;text/javascript&quot;&gt;\n/* &lt;![CDATA[ */!function(){try{var t=&quot;currentScript&quot;in document?document.currentScript:function(){for(var t=document.getElementsByTagName(&quot;script&quot;),e=t.length;e--;)if(t[e].getAttribute(&quot;data-cfhash&quot;))return t[e]}();if(t&amp;&amp;t.previousSibling){var e,r,n,i,c=t.previousSibling,a=c.getAttribute(&quot;data-cfemail&quot;);if(a){for(e=&quot;&quot;,r=parseInt(a.substr(0,2),16),n=2;a.length-n;n+=2)i=parseInt(a.substr(n,2),16)^r,e+=String.fromCharCode(i);e=document.createTextNode(e),c.parentNode.replaceChild(e,c)}t.parentNode.removeChild(t);}}catch(u){}}()/* ]]&gt; */&lt;/script&gt;\nFormat settings, CABAC           : Yes\nFormat settings, ReFrames        : 8 frames\nFormat settings, GOP             : M=1, N=2\nMuxing mode                      : Header stripping\nCodec ID                         : V_MPEG4/ISO/AVC\nDuration                         : 23mn 23s\nBit rate                         : 500 Kbps\nWidth                            : 1 280 pixels\nHeight                           : 720 pixels\nDisplay aspect ratio             : 16:9\nFrame rate mode                  : Variable\nFrame rate                       : 23.976 fps\nColor space                      : YUV\nChroma subsampling               : 4:2:0\nBit depth                        : 8 bits\nScan type                        : Progressive\nBits/(Pixel*Frame)               : 0.023\nStream size                      : 80.7 MiB (89%)\n\nAudio\nID                               : 2\nFormat                           : Vorbis\nFormat settings, Floor           : 1\nCodec ID                         : A_VORBIS\nDuration                         : 23mn 23s\nBit rate                         : 48.0 Kbps\nChannel(s)                       : 2 channels\nSampling rate                    : 48.0 KHz\nCompression mode                 : Lossy\nStream size                      : 8.03 MiB (9%)\nWriting library                  : aoTuV Beta 5 (UTC 2006-10-24)\nLanguage                         : English\n\n\nVisit http://www.minirlss.net - The No. 1 source for minimkvs for tv series in both 720p and 480p quality for latest updates and more....\n\nScreenshots added.\n\nEnjoy and pls seed back\t\t\n","torrent":{"xt":"urn:btih:1d9923e08c0831b6c2d77230f58c5f3160eadcaf","amp;dn":"THE+LEGEND+OF+KORRA+S01+720p+Web-Dl+95MB+MrLss","amp;tr":["udp%3A%2F%2Ftracker.openbittorrent.com%3A80","udp%3A%2F%2Fopen.demonii.com%3A1337","udp%3A%2F%2Ftracker.coppersurfer.tk%3A6969","udp%3A%2F%2Fexodus.desync.com%3A6969"],"infoHash":"1d9923e08c0831b6c2d77230f58c5f3160eadcaf","infoHashBuffer":{"type":"Buffer","data":[29,153,35,224,140,8,49,182,194,215,114,48,245,140,95,49,96,234,220,175]},"announce":[],"urlList":[]}}